<svg width="24" height="25" viewBox="0 0 24 25" fill="none" xmlns="http://www.w3.org/2000/svg">
<path fill-rule="evenodd" clip-rule="evenodd" d="M6.06 5.1367C7.63539 3.56131 9.77207 2.67627 12 2.67627C14.2279 2.67627 16.3646 3.56131 17.94 5.1367C19.5154 6.71208 20.4004 8.84877 20.4004 11.0767C20.4004 13.3046 19.5154 15.4413 17.94 17.0167L12 22.9567L6.06 17.0167C5.2799 16.2367 4.66108 15.3106 4.23889 14.2914C3.8167 13.2722 3.5994 12.1799 3.5994 11.0767C3.5994 9.97352 3.8167 8.88115 4.23889 7.86196C4.66108 6.84277 5.2799 5.91672 6.06 5.1367ZM12 13.4767C12.6365 13.4767 13.247 13.2238 13.6971 12.7738C14.1471 12.3237 14.4 11.7132 14.4 11.0767C14.4 10.4402 14.1471 9.82973 13.6971 9.37964C13.247 8.92955 12.6365 8.6767 12 8.6767C11.3635 8.6767 10.753 8.92955 10.3029 9.37964C9.85286 9.82973 9.6 10.4402 9.6 11.0767C9.6 11.7132 9.85286 12.3237 10.3029 12.7738C10.753 13.2238 11.3635 13.4767 12 13.4767Z" fill="#DD88CF"/>
</svg>
