<svg width="202" height="48" viewBox="0 0 202 48" fill="none" xmlns="http://www.w3.org/2000/svg">
<path d="M47.7969 9.99219H65.3945V16.4766H54.5938V21.4375H64.2422V27.9219H54.5938V38H47.7969V9.99219ZM78.3242 17.8828C79.2747 17.8828 80.0885 18.013 80.7656 18.2734L80.4141 24.2891C79.5807 23.9896 78.7018 23.8398 77.7773 23.8398C77.0872 23.8398 76.3385 24.0938 75.5312 24.6016C74.724 25.0964 74.125 25.7865 73.7344 26.6719V38H67.3281V18.2734H73.7344V20.5195C74.1641 19.7513 74.8281 19.1198 75.7266 18.625C76.625 18.1302 77.4909 17.8828 78.3242 17.8828ZM83.7734 9.62109C84.5417 8.86589 85.4401 8.48828 86.4688 8.48828C87.4974 8.48828 88.3893 8.86589 89.1445 9.62109C89.8997 10.3763 90.2773 11.2617 90.2773 12.2773C90.2773 13.319 89.8997 14.224 89.1445 14.9922C88.3893 15.7474 87.4974 16.125 86.4688 16.125C85.4271 16.125 84.5221 15.7409 83.7539 14.9727C82.9987 14.2044 82.6211 13.306 82.6211 12.2773C82.6211 11.2617 83.0052 10.3763 83.7734 9.62109ZM83.2266 18.2734H89.6328V38H83.2266V18.2734ZM112.27 27.3164C112.27 28.0846 112.191 28.9115 112.035 29.7969H98.6367C99.1966 31.9062 100.648 32.9609 102.992 32.9609C103.747 32.9609 104.477 32.7982 105.18 32.4727C105.883 32.1471 106.365 31.75 106.625 31.2812L111.664 34.3672C110.961 35.6432 109.828 36.6328 108.266 37.3359C106.716 38.0391 104.906 38.3906 102.836 38.3906C99.9323 38.3906 97.4714 37.3945 95.4531 35.4023C93.4349 33.4102 92.4258 30.9688 92.4258 28.0781C92.4258 25.2005 93.4154 22.7852 95.3945 20.832C97.3737 18.8659 99.8151 17.8828 102.719 17.8828C105.388 17.8828 107.647 18.7943 109.496 20.6172C111.345 22.4401 112.27 24.6732 112.27 27.3164ZM98.6367 25.7539H105.824C105.694 24.9727 105.297 24.3346 104.633 23.8398C103.969 23.332 103.207 23.0781 102.348 23.0781C100.382 23.0781 99.1445 23.9701 98.6367 25.7539ZM126.391 17.8828C128.891 17.8828 130.844 18.6836 132.25 20.2852C133.669 21.8867 134.379 24.1003 134.379 26.9258V38H127.953V28C127.953 26.8151 127.667 25.9102 127.094 25.2852C126.521 24.6471 125.727 24.3281 124.711 24.3281C124.086 24.3281 123.474 24.4974 122.875 24.8359C122.276 25.1745 121.794 25.6172 121.43 26.1641V38H115.023V18.2734H121.43V20.4414C121.964 19.6471 122.673 19.0221 123.559 18.5664C124.444 18.1107 125.388 17.8828 126.391 17.8828ZM151.684 9.99219H158.07V38H151.684V35.8711C151.228 36.6133 150.492 37.2188 149.477 37.6875C148.461 38.1562 147.354 38.3906 146.156 38.3906C144.516 38.3906 143.005 37.9349 141.625 37.0234C140.258 36.099 139.177 34.8555 138.383 33.293C137.589 31.7174 137.191 30.0052 137.191 28.1562C137.191 26.2943 137.589 24.5755 138.383 23C139.177 21.4245 140.258 20.181 141.625 19.2695C143.005 18.3451 144.516 17.8828 146.156 17.8828C147.341 17.8828 148.441 18.1172 149.457 18.5859C150.486 19.0547 151.228 19.6602 151.684 20.4023V9.99219ZM147.602 32.3164C148.461 32.3164 149.255 32.1146 149.984 31.7109C150.714 31.3073 151.28 30.793 151.684 30.168V26.1641C151.28 25.526 150.72 25.0052 150.004 24.6016C149.288 24.1979 148.487 23.9961 147.602 23.9961C146.43 23.9961 145.447 24.3932 144.652 25.1875C143.871 25.9688 143.48 26.9583 143.48 28.1562C143.48 29.3411 143.878 30.3307 144.672 31.125C145.466 31.9193 146.443 32.3164 147.602 32.3164ZM178.598 18.2734V22.8438L170.023 31.8477H178.754V38H160.629V33.4883L169.262 24.4453H161.352V18.2734H178.598ZM194.75 18.2734H201.664L190.824 44.2305H183.91L187.621 36.0859L180.258 18.2734H187.152L190.941 28.5664L194.75 18.2734Z" fill="white"/>
<path d="M33.9999 23.1111C34.0061 25.4576 33.4579 27.7723 32.4 29.8667C31.1456 32.3764 29.2173 34.4874 26.831 35.9632C24.4447 37.4389 21.6946 38.2211 18.8889 38.2222C16.5424 38.2283 14.2277 37.6801 12.1333 36.6222L2 40L5.37777 29.8667C4.31987 27.7723 3.77166 25.4576 3.77777 23.1111C3.77886 20.3054 4.56108 17.5553 6.03683 15.169C7.51257 12.7827 9.62355 10.8544 12.1333 9.60005C14.2277 8.54215 16.5424 7.99393 18.8889 8.00005H19.7778C23.4832 8.20448 26.9831 9.76851 29.6073 12.3927C32.2315 15.0169 33.7955 18.5167 33.9999 22.2222V23.1111Z" fill="#DD88CF" stroke="white" stroke-width="4" stroke-linecap="round" stroke-linejoin="round"/>
<path d="M27 24C27 26.1217 26.1571 28.1566 24.6569 29.6569C23.1566 31.1571 21.1217 32 19 32C16.8783 32 14.8434 31.1571 13.3431 29.6569C11.8429 28.1566 11 26.1217 11 24L19 24H27Z" fill="white"/>
<circle cx="25" cy="18" r="2" fill="white"/>
<circle cx="19" cy="18" r="2" fill="white"/>
<circle cx="13" cy="18" r="2" fill="white"/>
</svg>
