<svg width="24" height="25" viewBox="0 0 24 25" fill="none" xmlns="http://www.w3.org/2000/svg">
<path d="M23 11.6656C23.0042 13.2788 22.6273 14.8702 21.9 16.3101C21.0376 18.0355 19.7119 19.4868 18.0713 20.5014C16.4307 21.516 14.5401 22.0538 12.6111 22.0545C10.9979 22.0587 9.40657 21.6818 7.96666 20.9545L1 23.2767L3.32222 16.3101C2.59491 14.8702 2.21801 13.2788 2.22222 11.6656C2.22297 9.73668 2.76075 7.84602 3.77532 6.20543C4.78989 4.56485 6.24119 3.23913 7.96666 2.37677C9.40657 1.64946 10.9979 1.27256 12.6111 1.27677H13.2222C15.7697 1.41731 18.1759 2.49259 19.98 4.2967C21.7841 6.10082 22.8594 8.507 23 11.0545V11.6656Z" fill="#DD88CF" stroke="#DD88CF" stroke-width="2" stroke-linecap="round" stroke-linejoin="round"/>
<g clip-path="url(#clip0_25_383)">
<path d="M9.50073 11.776C9.77688 11.776 10.0007 11.5521 10.0007 11.276C10.0007 10.9999 9.77688 10.776 9.50073 10.776C9.22459 10.776 9.00073 10.9999 9.00073 11.276C9.00073 11.5521 9.22459 11.776 9.50073 11.776Z" fill="white" stroke="white" stroke-width="1.6" stroke-linecap="round" stroke-linejoin="round"/>
<path d="M12.9993 11.776C13.2754 11.776 13.4993 11.5521 13.4993 11.276C13.4993 10.9999 13.2754 10.776 12.9993 10.776C12.7231 10.776 12.4993 10.9999 12.4993 11.276C12.4993 11.5521 12.7231 11.776 12.9993 11.776Z" fill="white" stroke="white" stroke-width="1.6" stroke-linecap="round" stroke-linejoin="round"/>
<path d="M16.5002 11.776C16.7763 11.776 17.0002 11.5521 17.0002 11.276C17.0002 10.9999 16.7763 10.776 16.5002 10.776C16.224 10.776 16.0002 10.9999 16.0002 11.276C16.0002 11.5521 16.224 11.776 16.5002 11.776Z" fill="white" stroke="white" stroke-width="1.6" stroke-linecap="round" stroke-linejoin="round"/>
</g>
<defs>
<clipPath id="clip0_25_383">
<rect width="12" height="12" fill="white" transform="translate(7 5.27673)"/>
</clipPath>
</defs>
</svg>
